<svg id="Ebene_2" data-name="Ebene 2" xmlns="http://www.w3.org/2000/svg" viewBox="0 0 268.32 400"><defs><style>.cls-1{fill:#222221;}.cls-2{fill:#ff1b18;}.cls-3{fill:#fff;}.cls-4{fill:#dfdfdd;}.cls-5{fill:#00942f;}.cls-6{fill:#fff600;}</style></defs><title>1knust_ghana</title><path class="cls-1" d="M223.29,135.58c-6.29-7.92-6.12-18.7-5.55-24.09,1.3,4.73,5.8,8.57,7.59,9.23a23.75,23.75,0,0,1,3-16.74c3,6.23,5.88,12.08,9,12.82,1.56-3.76,1.31-8.09,1.64-15.76a97.22,97.22,0,0,1,2-15,41.76,41.76,0,0,0,4.65,9.15c-.73-5.72,2.61-12,7.35-18.7s6.53-11.27,6.7-15.11-1-5.35-1-5.35c9,3,14.45,9.52,15.43,29.11,3.43-1.87,5.14-7.1,5.14-7.1,1.72,5.64,2.78,6.78,4.09,10.86s1.71,7.43,1.22,9.72c2.12-2.37,3.67-4.41,4.65-4.74a31.9,31.9,0,0,0,.41,8.9c.41,2.21.66,7.84,0,9.72A14.62,14.62,0,0,0,296.7,104c3.83,3.75,4.41,10.28,2.2,16.65,4.49-2,7.1-6.85,7.1-6.85,2.05,9.3,0,17.88-5.47,23.1Z" transform="translate(-121.84 -56)"/><path class="cls-2" d="M294,127.34c2-4.48,1.12-8.26,2.59-15-1.68,2.86-4.69,4.75-9.38,7.2a11.75,11.75,0,0,0,.14-4.34c-.35-2.58-.91-4.54-1.26-8.39-1.05,1.12-1,3.43-2.24,6.51-3.7-4.27-2.79-8.89-2.72-12.11s.07-8.81-3.71-13.5c-.49,2.38-2,4.83-4.9,7.35-.42-12.11-3.5-20.85-8.32-27.5C264,72,258.5,77.53,253.32,84.52s-5.87,13.65-3.56,20.64c-.77-1.33-2.38-2.66-6.23-7.34.77,2,.21,6.78-1.05,9.3s-4.2,8.81-3.08,16.16c-2.73-3.78-4.41-1.12-8.74-10.28a15.36,15.36,0,0,0-2.73,12.8c-1.54-.21-2.73-.91-3.43-3.71-2.38,4.55-.28,9.44,2.1,12.17l7-.2a38.61,38.61,0,0,1,0-9.14s1.6,2.42,2.37,3.82c.6,1.08,1.82,3.95,2.34,5.2,3.36-.09,7.1-.17,10.73-.24-.93-3-3.27-12.29-3.27-18.89,1.34,5.44,7,15.15,9.3,18.79,3.43,0,6.47-.07,8.61,0l2.76.05c-.73-4.38.22-10.57,1.85-13.34a36.76,36.76,0,0,0,5.32-14.34c2.38,9.37-.84,16.37-2.52,21.27-1,2.94-1.63,5.17-2,6.48,3.23.11,5.26.27,7.27.52,2.05-4.86,5.49-8.57,11-8.82,0,4.71-4.13,7.88-7,9.38,5.07.76,15.86,1,15.86,1A17.9,17.9,0,0,0,301,123.84C299,125.66,297.75,126.15,294,127.34Zm-35.54-3.64c3.22-14.83.35-21.83.42-29s3.22-10.85,5.32-12.38c-2,8.53-.35,16.22.63,22.38S265.22,120.06,258.43,123.7Z" transform="translate(-121.84 -56)"/><path class="cls-1" d="M348,303.07c0-25.36-36.77-73.18-63-104.28,13.93-7.87,27.05-17.68,27.05-28.06,0-16.8-9.91-17-14.3-25,0-.62,2.88-2.25,4.89-4.64a6,6,0,0,0,1.07-3.73c-.07-.27-3.18-.52-3.18-.52-26.31-2-83.85-1.33-83.85-1.33.09,1.57,3.18,3.81,4.36,5.35a7.11,7.11,0,0,1,1.72,3.24c0,1.76-12,6.27-12,21.2,0,12,9.76,22.79,23.65,31.81C201,234.92,167.31,275.9,167.31,301.3c0,26.8,20.37,50.58,46.93,59.43,1.31,2.73,3.4,6.35,4.6,7.55h-4.58v9.37H205l2.79,6.68H196.52L200,392.2H309.44l4.68-8H299.27l3.59-6H294V359.83C314.51,351.87,348,332.88,348,303.07Z" transform="translate(-121.84 -56)"/><path class="cls-3" d="M237.36,143a145.76,145.76,0,0,1,45.31-.69v3.14c-20.17-1.82-38.71-.69-44.62.88Z" transform="translate(-121.84 -56)"/><path class="cls-3" d="M229.6,189.9a1.21,1.21,0,0,1-.9-2c10.24-11.66,25.74-29.38,26.47-30.42s3-1.49,4.69-1.55c1,0,4.43,0,5.62,1.49.87,1.11,16.51,18.75,24.66,27.92a1.2,1.2,0,1,1-1.79,1.6c-1-1.08-23.63-26.59-24.76-28-.76-.76-5.61-.78-6.48,0-.88,1.3-24,27.6-26.6,30.6A1.21,1.21,0,0,1,229.6,189.9Z" transform="translate(-121.84 -56)"/><path class="cls-4" d="M229.92,364.67c-14.42,0-44.57-9.68-61.36-27.19-8.06-8.41-11.95-17.49-11.55-27,1.82-43,48.86-93.56,66.57-112.6,2.29-2.46,4.1-4.4,5.25-5.73,10.32-11.89,24.85-28.19,26.24-29.67a6.66,6.66,0,0,1,4.6-1.52,7.75,7.75,0,0,1,5.36,2c3.18,3,3.36,6.5.5,9.92s-30.81,37.33-31.1,37.67-30.6,36.52-41.68,51.75c-11.84,16.28-18.91,34.32-18.91,48.25,0,14.75,24.28,51.77,56.11,53Z" transform="translate(-121.84 -56)"/><path class="cls-1" d="M259.67,161.58a7.24,7.24,0,0,1,4.94,1.78c2.8,2.62,3.25,5.77.46,9.11S234,210.14,234,210.14s-30.49,36.35-41.7,51.78-19,33.92-19,48.6,24.43,52.35,56.68,53.55c-20.83,0-73.71-20.36-72.31-53.55,2-48.29,61.58-106.33,71.67-117.95s24.79-28.12,26.23-29.66a6.09,6.09,0,0,1,4.16-1.33m0-1.2h0a7.13,7.13,0,0,0-5,1.71c-1.4,1.49-15.94,17.8-26.26,29.69-1.15,1.32-2.95,3.26-5.24,5.72-17.75,19.08-64.9,69.77-66.73,113-.41,9.66,3.54,18.89,11.72,27.43,16.9,17.63,47.27,27.38,61.79,27.38l.05-2.41c-18.56-.69-32.77-13.65-39.59-21.31-10.46-11.77-15.94-24.52-15.94-31,0-13.8,7-31.71,18.8-47.9,11.06-15.21,41.35-51.34,41.65-51.71s28.34-34.38,31.1-37.67c3.05-3.65,2.85-7.57-.55-10.75a8.37,8.37,0,0,0-5.77-2.11Z" transform="translate(-121.84 -56)"/><circle class="cls-3" cx="137.39" cy="113.19" r="3.72"/><path class="cls-1" d="M259.23,173.71a4.52,4.52,0,1,1,4.52-4.52A4.52,4.52,0,0,1,259.23,173.71Zm0-7.43a2.92,2.92,0,1,0,2.91,2.91A2.92,2.92,0,0,0,259.23,166.28Z" transform="translate(-121.84 -56)"/><path class="cls-4" d="M279.72,363.49c3.52-.95,7-1.93,10.23-2.93,19-7,51.19-26.61,51.19-56.1-1.16-23.63-18.11-44.52-28.24-57-1.76-2.17-3.28-4-4.47-5.62-.37-.51-37.33-50.16-47.47-60.16l-.44-.43,11.17-10.89.42.48c.51.59,51.36,59.39,57.57,67.19,6.77,8.49,27.19,45.22,27.19,65.39,0,12-3.79,21.49-11.93,30-10.58,11.06-28.44,20.31-54.61,28.27a67.23,67.23,0,0,1-10.34,3Z" transform="translate(-121.84 -56)"/><path class="cls-1" d="M271.65,171.24s51.28,59.29,57.56,67.17,27.05,44.69,27.05,65c0,19.24-9.32,40.41-66.12,57.71,21.07-7.72,51.6-27.89,51.6-56.68-1.37-28-24.9-52.4-32.83-63,0,0-37.23-50.08-47.53-60.23l10.27-10m18.49,189.9a67.27,67.27,0,0,1-10.26,2.93q5.37-1.44,10.26-2.93M271.73,169.49l-.91.89-10.28,10-.87.85.87.86c10.11,10,47,59.59,47.41,60.09,1.19,1.6,2.72,3.47,4.48,5.65,10.08,12.41,26.95,33.19,28.11,56.64,0,29.13-31.92,48.59-50.79,55.51-3.25,1-6.68,2-10.18,2.91l.53,2.34a68.94,68.94,0,0,0,10.42-3c26.26-8,44.2-17.3,54.85-28.44,8.25-8.62,12.1-18.29,12.1-30.41,0-20.31-20.52-57.23-27.32-65.77-6.22-7.8-57.07-66.61-57.59-67.2l-.83-1Z" transform="translate(-121.84 -56)"/><path class="cls-5" d="M335.76,296.66c-1.11-5.58-2.84-7.93-11.26-25s-40.74-58.32-44.95-66.12-12.14-6.44-19.07,4.33c-3-12.38-15.11-9.65-18.45-4.21-3.22,4.34-27.74,37-36.41,44.83s-17.1,19.25-28.72,49.16c3.59-.75,6.06-.75,9,1.61s9.78,9.9,25.26,10.77,29.71-3.1,32.56-4.46S257,308.67,257,308.67s5.88,3.34,26.68,4.33,30.84-1.11,36-3.84A67.35,67.35,0,0,1,337,303.47S336.88,302.23,335.76,296.66ZM222.81,280.42a39.78,39.78,0,0,0-9.8.95H213c-.65.15-1.3.31-1.94.49a11.09,11.09,0,0,0-3,1.83,12.5,12.5,0,0,0-3.11,3c-.81,1.24-1,3.08-1.54,4.45a10.58,10.58,0,0,0-.43,3.37,10.46,10.46,0,0,1-2.28,5.68c-.53.65-2.48,1.83-3.33,1.15-.63-.5-.28-1.86,0-2.46a4.44,4.44,0,0,1,.83-1.23,16.47,16.47,0,0,0,2.25-4.75c.42-1.1.43-3.41-.52-4.25s-1.78-.31-2.64.08c-1.31.6-2.62,1.18-3.89,1.86-.85.46-1.69,1.07-2.58,1.44-.66.28-1.32.45-2,.77a25.85,25.85,0,0,1-7.09,2.51l-1,.17c.46-.9,1.58-1.2,2.42-1.77a27.64,27.64,0,0,1,3.73-1.76c1-.44,2.81-.9,3.41-1.86.44-.72-.25-1.6-.92-1.87-.48-.18-2.38.07-2.41-.59,0-.22.24-.37.46-.39a6.4,6.4,0,0,1,1.28-.16,19.26,19.26,0,0,0,7.27,0c2.22-1.28,4.45-2.56,6.75-3.72a42,42,0,0,1,7-2.82c-.54.16-1.65-.89-2-1.23a23.85,23.85,0,0,0-3.26-2.93,12.75,12.75,0,0,0-4.61-1.57c-.89-.2-1.76-.56-2.66-.76-.47-.1-2.18-.68-2.6-.45a7,7,0,0,1,4.08-.93,15.42,15.42,0,0,1,7.17,2.55c2.33,1.59,4.21,3.7,7,4.55a43.8,43.8,0,0,1,10-.91A.81.81,0,0,1,222.81,280.42Zm108.39,21a6,6,0,0,0-1.49-.6c-3-.88-5.8-2.26-8.71-3.43l-4.74-1.88-2.37-.94c-.35-.13-1.89-1-2.19-.85a1.73,1.73,0,0,0-1,1.3,7,7,0,0,0-.05,1.45c0,.91-.07,1.83-.1,2.75,0,.08,0,.17,0,.25a13.92,13.92,0,0,0,1.26,6.37l.47.73a.35.35,0,0,1,.05.29l.08.13a.41.41,0,0,1-.7.41c-.25-.45-.48-.88-.68-1.3-.81-1.26-1.65-2.51-2.38-3.81a11.92,11.92,0,0,1-1.22-4.27c-.59-3.55-3.1-5.69-6.15-7.15a26.34,26.34,0,0,0-11.79-2.05c0,.42-.11.85-.16,1.28-.48,3.92-.63,7.93,1.07,11.59a.41.41,0,0,1-.45.59c-2.28-.43-3.11-3.95-3.35-5.85-.45-3.69,1.05-8.32-1.23-11.57a56.63,56.63,0,0,0-8.51-3.81.32.32,0,0,1-.36.09q-2.66-.78-5.39-1.31c-.5-.1-.29-.87.22-.77a.41.41,0,0,1,.5-.45l1.2.27a.32.32,0,0,1,.34-.17,19.15,19.15,0,0,1,4,.85,18.17,18.17,0,0,1,4.81,2.39,53.48,53.48,0,0,0,9,3.58l5.87,2c1.88.64,4,1.45,5.86.91.12-.11.26-.21.39-.31a17.32,17.32,0,0,1,1.13-1.57A11.67,11.67,0,0,1,306,284.6a14.35,14.35,0,0,1,5.35-3.06,43.18,43.18,0,0,1,7.68-1.93c1.22-.22,3.17-1,4,.29a1.84,1.84,0,0,1,.2.31.41.41,0,0,1-.14.55,37.51,37.51,0,0,1-8,2c-2.57.49-6.16,1.31-7.85,3.61a2.31,2.31,0,0,0,.26,1.55.3.3,0,0,1,.16.27,3.41,3.41,0,0,0,.5.59,12.21,12.21,0,0,0,5.09,2.43.35.35,0,0,1,.26.29,91.91,91.91,0,0,0,14.56.15c.45,0,.55.71.11.79a9.6,9.6,0,0,0-3.51.92c-.92.58-1.88,1.22-2.77,1.86-.06.05-.13.1-.13.18s.09.15.18.19c3.24,1.52,6.72,2.08,9.26,4.86l0,0,.38.23A.4.4,0,0,1,331.2,301.4Z" transform="translate(-121.84 -56)"/><path class="cls-6" d="M258.61,326s-39,.3-44.67,0-20.12-3.38-26.72-9.22-8.29-9.21-9.21-12,2-4.91,5.22-1.84,12,9,24.1,10.27,33.93,0,46.83.56,38.16,2.52,47.18,2.52,23.29-4.45,28.51-7.67,7.84.63,6.3,5.15-15.66,12.47-32.09,12.33S258.61,326,258.61,326Z" transform="translate(-121.84 -56)"/><path class="cls-6" d="M302.06,330.13H212.27a1.21,1.21,0,0,1,0-2.41h89.79a1.21,1.21,0,1,1,0,2.41Z" transform="translate(-121.84 -56)"/><path class="cls-6" d="M277.33,334.8h15.08V343c0,1.9-7,11-15.08,11H264.6c0-2.31,2.62-5.2,5.78-5.92s6.41-4,6.86-6.86A29.72,29.72,0,0,0,277.33,334.8Zm-45.95,18.87c1,0,26.09.72,27.17,0,1.9-3.07,10.3-11.11,14.09-12.91.54-.63.63-4.7-.45-6H261.38c-5.11,5.78-6.53,6.23-10.77,9.84s-15.44,7-17.78,6.95-2.71.63-2.71,1.36A1.28,1.28,0,0,0,231.38,353.67Zm-27,33.22H307.66l-3,3.52h-98.4ZM211,380h83.77l-2.34,3.88H214.32Zm7.58-3.79V370.1h.72c1.27,1.89,7.41,5.32,9.66,5.5v.64Zm1.18-35h.72a7,7,0,0,1,.27-2.35c.36-1.08,4.33-4.87,6.41-5.5v-1h-4.7c-1,1.09-1.35,4-4.69,4.43C217.34,339.46,218.2,340.67,219.74,341.21Zm17.51,34.39c5.6,0,9.48,0,14.71-4.33-1.62-.72-7.22-3.79-12.27-6.14s-8.4-1.89-11.83-3.7-3-9,.36-10.29,19.32-8.49,20.95-9.93,4.51-7.49-10.75-7.49-19.32,11.46-19.32,22.66C219.1,368,231.65,375.6,237.25,375.6Zm-7.13-16.7c0,.73.36,1.45,2.71,1.36s13.54,3.34,17.78,6.95,5.66,4.06,10.77,9.84h10.81c1.08-1.27,1-5.33.45-6-3.79-1.8-12.19-9.84-14.09-12.91-1.08-.72-26.18,0-27.17,0A1.28,1.28,0,0,0,230.12,358.9Zm47.21,18.15h15.08v-8.22c0-1.89-7-11-15.08-11H264.6c0,2.31,2.62,5.2,5.78,5.92s6.41,4,6.86,6.86A29.72,29.72,0,0,1,277.33,377.05Zm14.45-27.17c-1.18.09-.95,1.49-2,2.52s-6.14,2.26-6.14,3.52,5.1,2.49,6.14,3.53.81,2.43,2,2.52,2.61-3.16,2.61-6.05S293,349.79,291.78,349.88Z" transform="translate(-121.84 -56)"/><path class="cls-1" d="M390.14,182.54a131.14,131.14,0,0,1-69,25.76s2-9.25,1.85-13.17c-10,9.36-20.68,15.85-22.84,16.26a24.29,24.29,0,0,1-4.63.1c-.72.1-1.08-1.33-1.43-3s-1.45-3.4-3.61-3.19c-.11-1.23-1.54-3.4-3.8-4.56a14.16,14.16,0,0,1,0,3.18s-1.65-.06-1.75-.58a6.89,6.89,0,0,0-1.31-3.78s.59,1-1.47,3.68a21,21,0,0,0-6.07,1.65c-.82.3-1.51-.57-2.46-.09s-1.24,1.42-2,1.84a8.92,8.92,0,0,1-3.29.73c.51.85.41,3.48,0,3.47a24.48,24.48,0,0,0-2.57.53,16,16,0,0,1,.51,4.06c-2.16,0-3.19,1.39-6.86,4,0,0,2,.82,2.44,2.16-1.75,1.44-4.53,4.12-9.37,3.4,4.33-7.41,4.84-13.48,1.82-17.07s-7.16-2.48-19.41-4.33-30.65-11.42-36-18.62c-2.26,15.43,3.6,17.38,3.39,20.47C177,203.26,173,198,160.94,192.72a122.62,122.62,0,0,0-37.24-9.93c-2.68,6.89-3.55,13.29,4.94,19.85-1.94,9.1,2.06,9.53,4.74,9.13-1.07,3.61,1.6,7.55,4.6,6.48-.47,7.74,5.14,11.35,9.75,10.08,1.54,11.55,11.65,12.07,17.29,12.1.74,5.4,7,9.8,12.36,9.33,2.13,4.75,7.41,9.36,11.41,7.14-.73,3.6,3.81,7.75,7.48,6.89.8,4.14,7.15,6.74,10.68,4.87.34,2.87,4.88,7.48,9.3,6a2.55,2.55,0,0,0,3.32,2.07,13.57,13.57,0,0,0-.2,2.8c.07,1.47.67,2.74.07,3.81-1.4,1.8-11.75,13.15-13.22,16.06s-.43,6.11,1.4,7.07,3.14-.9,4.93-1.17c1.44,3.46,3.91,4.41,5.47,4.53a1.44,1.44,0,0,0,1.67-1.74c-.06-.64.71-1.76,1.63-.85s3.81,2.38,5.77,2.14a6.08,6.08,0,0,0,2.65-.41c1.33-.63,2-2.06,2.81-3.32.3-.49.73-1,1.31-1,.93,0,1.36,1.53,2.29,1.45a1.56,1.56,0,0,0,.78-.39,5.37,5.37,0,0,0,1.43-1.46,2.68,2.68,0,0,1,.46-.69,1.32,1.32,0,0,1,1.56-.06,3.89,3.89,0,0,1,1.13,1.22,4.21,4.21,0,0,1,.76,1.45,2.26,2.26,0,0,1-.17,1.47,3.73,3.73,0,0,1-2.92,1.67,11.58,11.58,0,0,0-3.43.65c-.58.28-1.08.71-1.66,1-1.18.63-2.65.73-3.68,1.59a1.14,1.14,0,0,0-.46.72,1.37,1.37,0,0,0,.57,1.06,3.59,3.59,0,0,0,1.89,1c1.76.4,3.59.07,5.39.19s3.79.88,4.42,2.57a2.52,2.52,0,0,0,.47,1,1.56,1.56,0,0,0,.74.33,11.28,11.28,0,0,0,3.71-.17,8.45,8.45,0,0,1,3.2.2,2.68,2.68,0,0,1,.83.31,2,2,0,0,1,.8,2.08,8.35,8.35,0,0,1-.92,2.15,3.87,3.87,0,0,0,4.14-.93,8.12,8.12,0,0,0,1.13-1.6c.23-.41.35-1,.61-1.37a1.56,1.56,0,0,1,.23-.28,1.24,1.24,0,0,1,.7-.22,4.93,4.93,0,0,1,3.26.8,1.62,1.62,0,0,1,.5,1.84c-.26.81-2.15,2.54-.11,2.06a9.45,9.45,0,0,0,1.55-.53,8.17,8.17,0,0,0,3.38-3.48,7.14,7.14,0,0,1,.73-1.3c.32-.32.64-.27,1.11-.31a14.77,14.77,0,0,1,4.09.18,3.69,3.69,0,0,1,.93.27,4.09,4.09,0,0,1,1.25,1.1,1.66,1.66,0,0,1,.48.84c.14,1.08-.46,2.15-.38,3.21.07.83.42.78,1.07.52a6.55,6.55,0,0,0,3.08-2.59,7.55,7.55,0,0,0,.85-4.94c0-.48,3.18-.2,3.44-.17.43.06.93-.12,1.33.08a.9.9,0,0,1,.35.32c.52.78.31,1.81.43,2.69a6.64,6.64,0,0,1-.42,2.77c-.1.35-.21.7-.31,1.05a7.86,7.86,0,0,0,3.56-2c1-.92,2.19-2.36,2.32-3.71a10.55,10.55,0,0,0-.38-4.93c-1.24-3.17-4.59-5.08-7.93-5.75s-6.79-.36-10.2-.48a1.85,1.85,0,0,1-1.12-.3,1.92,1.92,0,0,1-.46-.76l-1.72-4.36a20.25,20.25,0,0,1,5.47,1.72,4.3,4.3,0,0,0-1.41-2.71,10.61,10.61,0,0,1,5.81,1.92c.36-.37.16-1-.06-1.45q-1.25-2.61-2.72-5.08c-1.49-2.51-3.25-4.77-5-7.1,3.21-1.79,9-6.63,10.94-13.29a4.78,4.78,0,0,1,1.85.21c.82.31,1.44,1.85,2.64,3.09s5.59,2.88,5.69-.5c1.85,1.56,6.79,3.07,7.51-.84,2.78,1.13,6.48,1.65,6.28-1.34,5.14,2,10.08-1,8.95-4.11,3.7.82,7.71.92,8.32-3.76,7.91,1.39,9.27-1,9.68-4.06,1.44.72,6.38,0,5.86-4.32,9.06-.82,9.16-4.94,8.95-7.82,2.78.62,6-2.88,5.87-8.44,4.21.83,6.37-1.54,6.17-5.76,3.29-1,5.66-3.8,6.07-8.74,2.78-.21,6.17-3.6,6.17-9.57,4.63-.41,6-4.83,6.28-12.34C391.27,207.48,390.14,189.44,390.14,182.54ZM285.55,238.72c-1.64,6.19-6.05,8.14-7.51,8.44-.62.12,2.58-4.28,3.63-8.44s.27-8.06,1.59-8.28S287.2,232.53,285.55,238.72ZM290,228.34c-1.32.11-3.91,0-5.17.49-.36.13-.22-3.06-.22-3.06l3-2.67H290S290.08,227.68,290,228.34Z" transform="translate(-121.84 -56)"/><path class="cls-2" d="M258.56,294.84a61,61,0,0,1,6.47,8.54,36.33,36.33,0,0,0,2.12,3.21,3.53,3.53,0,0,0,.79.8,3.89,3.89,0,0,0,1.42.46,12,12,0,0,0,3,.31c.64,0,1.28-.18,1.93-.21,3.7-.16,6.73,3.3,10.43,3.46.59,0,1.4.17,1.4.76a1,1,0,0,1-.22.53,2.68,2.68,0,0,1-1,1.08,2.86,2.86,0,0,1-1.2.2,8.45,8.45,0,0,1-3.94-.55c-1.06-.53-1.89-1.49-3-1.88a6.33,6.33,0,0,0-2.17-.23l-2.89,0c.23,0,1.32,1,1.62,1.15.64.34,1.31.61,1.93,1s1,.4,1.34.89a3.4,3.4,0,0,1,.41,2.25,1,1,0,0,1-.19.46c-.6.77-2.84.21-3.72.33a6.37,6.37,0,0,1-3.74-.59c-.36-.2-.48-.53-.81-.75a3.67,3.67,0,0,0-1.35-.37,6.28,6.28,0,0,1-2.25-1c-.78-.51-1.67-.36-2.45-.79a1.72,1.72,0,0,1-.77-1.77,3,3,0,0,1,1.08-1.7,3.14,3.14,0,0,0,1-1,2.46,2.46,0,0,0-.5-2.2c-1.89-3.11-4-6.42-7.43-7.7-.57-.22-1.27-.51-1.29-1.11a1.45,1.45,0,0,1,.55-1L257.5,295c.14-.14.22-.39.4-.48S258.43,294.69,258.56,294.84ZM245.81,301c-1-.06-1.46,1.24-2.19,1.68a12.41,12.41,0,0,1-1.32.51,1.1,1.1,0,0,0-.73,1.08,1.62,1.62,0,0,0,.6.78,10.5,10.5,0,0,1,2.21,3.36c.31.63.6,1.45.15,2a1.7,1.7,0,0,1-1,.46c-2.24.46-4.59-.24-6.82.22a2.69,2.69,0,0,0-1.6.84,1.23,1.23,0,0,0,.07,1.66,2.08,2.08,0,0,0,1.75.1,10.22,10.22,0,0,1,5.4.35,2.87,2.87,0,0,1,1.95,1.57c.12.37.12.81.39,1.09a1.21,1.21,0,0,0,.47.26c1.31.46,2.76.17,4.14.33a6.52,6.52,0,0,1,2.5.82c.61.35,1.38.82,2,.42a1.38,1.38,0,0,0,.46-1.23,3.21,3.21,0,0,0-1.05-2.18,6.36,6.36,0,0,0-2.37-1.14l-2.73-.87c-.57-.19-1.23-.46-1.39-1s.52-1.34,1.22-1.39a3.43,3.43,0,0,1,2,.68,22.25,22.25,0,0,1,4.21,3.11c.83.82,1.55,1.73,2.43,2.49a5.07,5.07,0,0,0,3.11,1.39,2.19,2.19,0,0,0,1.28-.32,2,2,0,0,0,.68-2.2,3.32,3.32,0,0,0-1.55-1.83,11,11,0,0,0-2.28-.93c-2.79-.94-5.59-2.19-7.54-4.4a13.5,13.5,0,0,1-2.75-5.41C247.26,302.41,246.89,301.07,245.81,301Z" transform="translate(-121.84 -56)"/><path class="cls-2" d="M251.17,226.84a26,26,0,0,0,5.16,0s2.78,7.57,4.64,11.86,6.55,10.17,7.08,10.79-1.34,1.11-2.44.83-6.65-4.26-9.45-8.91-4.81-10.07-5.08-12.25C250.73,226.39,251.17,226.84,251.17,226.84Z" transform="translate(-121.84 -56)"/><path class="cls-2" d="M292.72,213.6a4.67,4.67,0,0,1,1.38-.35c1.48-.15,2.58-.33,3.55.5a6.59,6.59,0,0,1,2.12,4.2c-.11.66-2-.11-3.79-1s-1.83-1.55-2.6-2S292.22,213.88,292.72,213.6Zm.83,7.51a2.87,2.87,0,0,0,3.57.08c2.2-1.3,1.44-.8.28-1.9s-1.65-1.27-3.63-2c-1.27-.34-2-.08-2.09.25C291.4,218.47,292.17,220.26,293.55,221.11Z" transform="translate(-121.84 -56)"/><path class="cls-6" d="M163.25,217a22.55,22.55,0,0,0,4.37,2.11,22.66,22.66,0,0,0,5.46.56,38.68,38.68,0,0,1,4.81.54,10.76,10.76,0,0,1,3.85,1.29,4.51,4.51,0,0,1,2.22,3.25.5.5,0,0,1-.08.38.55.55,0,0,1-.49.1c-1.08-.15-2.15-.36-3.22-.54a60.72,60.72,0,0,0-11.5-.86c-3.28.07-6.56.4-9.84.22a36.5,36.5,0,0,0-5.72-.18c-2,.21-3.85.91-5.81.81a9.9,9.9,0,0,1-3.65-.94,3.74,3.74,0,0,1-.91-.47,3.58,3.58,0,0,1-.79-1,10.58,10.58,0,0,1-1.47-4.17,19.92,19.92,0,0,1,.14-3.18c0-.68-.13-1.65.3-2.24.82-1.13,3.32-.69,4.48-.64a40.64,40.64,0,0,1,11.76,2.26A40,40,0,0,1,163.25,217Zm3.9,9.67c-3.48-.11-7.1-.53-10.57-.33-2.41.14-3.45,3.07-3,5.19a6.11,6.11,0,0,0,3.68,4,12.82,12.82,0,0,0,5.54.76,30.33,30.33,0,0,0,11.35-2.72,10.65,10.65,0,0,1,1.72-.69,9.41,9.41,0,0,1,2-.23c4.27-.18,8.73-.32,12.61,1.47a2.15,2.15,0,0,0,1.72.29,8.34,8.34,0,0,0-5.76-6.63,15.13,15.13,0,0,0-3.35-.48c-3.23-.22-6.47-.32-9.71-.43Zm3.39,16.47a7.3,7.3,0,0,0,5.47,3.58,11.22,11.22,0,0,0,5.72-1.34,39.61,39.61,0,0,1,5.4-2.45c3.39-1,7-.51,10.55-.23a1.5,1.5,0,0,0,1.3-.33c.46-.57-.1-1.38-.67-1.85-5.3-4.43-12.72-5.61-19.58-4.76a13.57,13.57,0,0,0-6,1.89C171.14,238.75,169.46,241.2,170.54,243.16ZM182,253.41c.5,1.41,1.6,1.38,2.92.88.85-.31,1.62-.8,2.45-1.17,1.42-.63,3-.92,4.43-1.44,2-.7,3.86-1.84,5.95-2.2a27.34,27.34,0,0,1,5.5.05c.59,0,1.3-.05,1.57-.57a1.53,1.53,0,0,0-.35-1.49c-3.24-4.57-9.17-3.91-14-2.84a32.42,32.42,0,0,0-5.06,1.63,6.39,6.39,0,0,0-3.39,2.67A5.84,5.84,0,0,0,182,253.41Zm11.62,8.07c2.2,1.23,5.64-.19,7.65-1.17a64.09,64.09,0,0,1,6.49-3.21,46.43,46.43,0,0,1,5.59-1.35,1.38,1.38,0,0,0,.89-.44,1,1,0,0,0-.12-1.13,3,3,0,0,0-1-.68,23,23,0,0,0-6.94-2.24c-3.95-.45-7.93.93-11.31,3a6.94,6.94,0,0,0-1.63,1.27C191.92,257,191.68,260.38,193.66,261.48Zm7.36,4.09c1.31,1.29,4.51.86,6.09.45a15.85,15.85,0,0,0,3.54-1.6l7.18-4c.53-.29,1.12-.69,1.12-1.29a1.13,1.13,0,0,0-.78-1,3.25,3.25,0,0,0-1.35-.13,46.59,46.59,0,0,0-8.95,1.32,14.34,14.34,0,0,0-5.08,2.11C201.7,262.23,199.63,264.22,201,265.57Zm10.25,1c-1.16.93-.44,3.36-.18,4.65.15.77.46,1.65,1.21,1.87a1.76,1.76,0,0,0,1.19-.14c1.43-.59,2.38-1.92,3.41-3.07a18.24,18.24,0,0,1,6.76-4.71,11.64,11.64,0,0,0,2-.91,2.81,2.81,0,0,0,1.31-1.73,11,11,0,0,0-7.18-.16,22.77,22.77,0,0,0-3.23,1.45C214.94,264.7,212.73,265.43,211.27,266.59Zm9.79,3.2c-.4.85-2,4.52.1,4.08a2.69,2.69,0,0,0,1-.51,31.13,31.13,0,0,0,3.18-3c2.23-2.1,4.76-2.17,7.62-2.66a1.24,1.24,0,0,0,.73-.31.88.88,0,0,0,0-1.06,2.16,2.16,0,0,0-.9-.68,9,9,0,0,0-8.75.61A8.81,8.81,0,0,0,221.06,269.79ZM181.13,217.4c.73,2.67,4.53,4.84,7,5.39,3,.66,6,0,9.06-.15a22.73,22.73,0,0,1,4,.25,8.41,8.41,0,0,0,2.12.18,2,2,0,0,0,1.17-3.67,6.4,6.4,0,0,0-2.65-1.23,53.23,53.23,0,0,0-7.69-1.67,67.83,67.83,0,0,0-8.19-.36c-.91,0-3.87-.61-4.7.28A.94.94,0,0,0,181.13,217.4Zm13.37,7.35c-1.37.14-2.61.15-4,.2a.31.31,0,0,0-.21.06.26.26,0,0,0-.06.19,2.58,2.58,0,0,0,1.13,2.12,12.5,12.5,0,0,0,4.42,1.93c3.41.79,6.93-.82,10.43-.59a4.49,4.49,0,0,0,1.32,0,1.21,1.21,0,0,0,1-.83c.15-.7-.57-1.26-1.22-1.57a19.81,19.81,0,0,0-8.43-1.73A37.52,37.52,0,0,0,194.5,224.75Zm8.68,5.68c-1.08.1-2.53.08-3.39.86a3.14,3.14,0,0,0-.54,3.19c.78,2.47,4.35,2.49,6.44,2.42.86,0,1.71-.12,2.57-.21a24.23,24.23,0,0,1,5.87-.45,1.18,1.18,0,0,0,.83-.08.8.8,0,0,0,.29-.41c.26-.8-.43-1.56-1.07-2.11-1.66-1.44-3.43-2.92-5.59-3.34A19.62,19.62,0,0,0,203.18,230.43Zm1.31,8.66c-.91,1.12-.29,3.09.68,3.94a4.87,4.87,0,0,0,4.18.73c1.43-.3,2.78-.94,4.21-1.26s2.81-.35,3.88-1.21a.67.67,0,0,0,.32-.54c0-.21-.2-.36-.36-.49-1.56-1.16-3.21-2.37-5.14-2.61a11.13,11.13,0,0,0-3.2.2C207.78,238.05,205.4,238,204.49,239.09Zm5.18,8.14a2.33,2.33,0,0,0,.37,1.09c1.39,1.85,5.19,1,7.07.72a12.73,12.73,0,0,0,2.21-.54,6.78,6.78,0,0,0,2.44-1.57,2.35,2.35,0,0,0,.83-2.25c-3.12-1.35-6.69-1-10-.33C211.1,244.64,209.46,245.58,209.67,247.23ZM223.05,250a25,25,0,0,0-3.46.08c-.75.1-2.52.2-2.86,1a2.71,2.71,0,0,0-.1,1.3,3.92,3.92,0,0,0,.73,2.31,3,3,0,0,0,2,.81c3.08.2,6.24-.48,8.31-3a1,1,0,0,0,.34-.87,1,1,0,0,0-.51-.56A8.72,8.72,0,0,0,223.05,250Zm3,9a3.14,3.14,0,0,0,1.46.14,6.62,6.62,0,0,0,2.38-.71c.71-.38,1.35-.89,2.07-1.24s1.56-.56,2.3-.94c.36-.19.74-.53.65-.92s-.33-.44-.58-.56c-2-1-4.88-1.55-6.85-.21C226.25,255.39,223.63,258.07,226,259Zm5.59-.28a2.92,2.92,0,0,0-1.63,1.91,2.32,2.32,0,0,0,.53,1.76,5.1,5.1,0,0,0,1.47,1.18,3.76,3.76,0,0,0,.79.36,3,3,0,0,0,2.89-1.16c.48-.55,1-1.09,1.39-1.69a7.19,7.19,0,0,0,.66-1.09,9.9,9.9,0,0,0,.34-1.18c.09-.27.26-.53.19-.81a.66.66,0,0,0-.45-.44,1.79,1.79,0,0,0-.65-.08A11,11,0,0,0,231.62,258.74Z" transform="translate(-121.84 -56)"/><path class="cls-6" d="M332.81,215.77c-.5-.43-1.29-.84-1.11-1.48a1.09,1.09,0,0,1,.56-.6,8.66,8.66,0,0,1,2.33-.79A105.73,105.73,0,0,1,345,211.1c.85-.1,2,0,2.22.79a1.44,1.44,0,0,1,0,.77,5.37,5.37,0,0,1-3,3.81,10.45,10.45,0,0,1-2.65.69l-4.35.73c-.82.14-2.43.68-3.19.15S333.53,216.38,332.81,215.77Zm16.08.8c-.23,1.81,2.52,2.09,3.72,2.08l5.64,0a60,60,0,0,0,11-.74,3.38,3.38,0,0,0,1.11-.37,3.57,3.57,0,0,0,.85-.84l1.38-1.74a7,7,0,0,0,1.36-2.28,2.33,2.33,0,0,0-.63-2.44,3.35,3.35,0,0,0-2.52-.33,80.74,80.74,0,0,0-13.39,3c-1.29.4-2.56.84-3.83,1.27S349.09,215,348.89,216.57Zm-1,6.4c-.69,1.43-1.11,3,.91,3s4-.28,6-.28,3.73,0,5.59.13a14.67,14.67,0,0,0,4-.17,4.5,4.5,0,0,0,3.15-2.33,1.66,1.66,0,0,0-.31-2,2.12,2.12,0,0,0-1.12-.25,148,148,0,0,0-15.62.23A3.11,3.11,0,0,0,347.89,223Zm-19.11,2.26c.34,1.58,7.87.16,9.07.21a15.54,15.54,0,0,0,3.41,0,3.9,3.9,0,0,0,2.8-1.74,2.3,2.3,0,0,0-.58-3,3.63,3.63,0,0,0-1.79-.38,62.34,62.34,0,0,0-7.73.26,3,3,0,0,0-2.51,1.18A17.32,17.32,0,0,0,328.78,225.23Zm10.83,2-8,.11c-1.58,0-3.11-.49-4.45.34a4.52,4.52,0,0,0-2,2.82q7.29-.16,14.59-.08a1.64,1.64,0,0,0,1.14-.31,2.62,2.62,0,0,0,.53-2.05C341.26,227.34,340.34,227.2,339.61,227.21Zm14.88.38a16.65,16.65,0,0,0-3.79.33l-3.32.53a3.84,3.84,0,0,0-1.79.62,3.67,3.67,0,0,0-.8,1l-1.59,2.58a.62.62,0,0,0-.11.34c0,.3.44.35.74.31A50.5,50.5,0,0,1,353,233a17,17,0,0,0,5.29-.14,4.77,4.77,0,0,0,3.69-3.41c.28-1.48-1.78-1.12-2.63-1.13C357.72,228.3,356.14,227.7,354.49,227.59Zm-19.56,12.86a1.57,1.57,0,0,0,1,.22c5.44,0,10.89-.56,16.31-.17a2.91,2.91,0,0,0,1.94-.3,2.73,2.73,0,0,0,.62-.73l.5-.73a3.93,3.93,0,0,0,.67-1.34,1.32,1.32,0,0,0-.45-1.36,1.82,1.82,0,0,0-1-.23q-5.13-.28-10.25-.24c-1.73,0-3.46,0-5.18.12-1.52.09-1.11.84-1.77,1.94S335.35,239.23,334.93,240.45Zm8.94,1.77c-1.37,0-2.74-.06-4.11-.06-1.65,0-4.34-.61-5.77.4-.7.49-.78,1.28-1.65,1.61s-1.84.21-2.31,1a.69.69,0,0,0,0,.74,1,1,0,0,0,.66.32c3.08.57,6.26.29,9.38.57a6.57,6.57,0,0,1,1.59.3c1.27.45,2.38,1.59,3.72,1.44s2.67-.64,3.13-2c.35-1.07.22-3.31-.88-3.94a2.77,2.77,0,0,0-.92-.3A17.57,17.57,0,0,0,343.87,242.22Zm-22.67-7.53c-.13.48-.59.79-.94,1.15s-.6,1-.25,1.33a1.18,1.18,0,0,0,.71.28,72.26,72.26,0,0,0,10.7.75,6,6,0,0,0,2.19-.31,6.07,6.07,0,0,0,2.35-2.21,2.84,2.84,0,0,0,.81-2.29.86.86,0,0,0-.25-.42,1.12,1.12,0,0,0-.7-.15l-8.76.12-4.29.05c-.38,0-1-.09-1.35.21S321.32,234.23,321.2,234.69Zm.85,4.51c-.6-.08-1.4-.54-2-.47-1,.11-2,2.51-1.23,3.22a1.74,1.74,0,0,0,.74.31c1.33.38,2.53,1.11,3.83,1.56a4.58,4.58,0,0,0,4-.16c.26-.18.5-.39.77-.54a11.83,11.83,0,0,0,1.31-.58,1.61,1.61,0,0,0,.07-2.46,2.58,2.58,0,0,0-1.47-.42c-1.1,0-2.21-.06-3.32-.16C323.86,239.43,323,239.32,322.05,239.2Zm-5.76,8.73c1.23.37,2.56.32,3.75.8a5.78,5.78,0,0,0,2.18.78,2.84,2.84,0,0,0,1.47-.54,2.46,2.46,0,0,0,1.31-1.85c0-1-1.06-1.72-2-2.13-1.42-.61-4.53-2.11-6.09-1.27-.78.42-.83,1.51-1.31,2.18C314.92,246.82,315.08,247.57,316.29,247.93ZM309,251.72a.49.49,0,0,0-.1.32c0,.18.19.3.36.36.92.3,1.94-.49,2.86-.19.75.25,1.09,1.1,1.65,1.67a2.7,2.7,0,0,0,3.72,0c.27-.28.48-.62.75-.9.56-.55,1.43-1,1.47-1.75a1.4,1.4,0,0,0-.8-1.2,6.64,6.64,0,0,0-1.45-.47c-1.16-.34-2.21-1-3.33-1.41s-2.72-1-3.29.33c-.26.6-.16,1.27-.52,1.83S309.37,251.17,309,251.72Zm9,3.58c-.35.19-.73.53-.62.91s.36.41.61.52a42.81,42.81,0,0,0,7,2.58c1,.25,2,.42,3,.69a19.83,19.83,0,0,0,5.09,1.15,2.94,2.94,0,0,0,1.4-.29,1.42,1.42,0,0,0,.78-1.12,5,5,0,0,0-.19-1.08,5.1,5.1,0,0,0-.12-1c-.24-.68-1.05-.93-1.76-1.08-.94-.2-1.88-.38-2.83-.54-.74-.13-1.47-.25-2.19-.45a18.81,18.81,0,0,1-1.78-.63l-2.74-1.09a7,7,0,0,0-2.46-.86c-.62,0-.9.52-1.27.95A6.62,6.62,0,0,1,318.05,255.3Zm7.49-5.24a1,1,0,0,0-.42.86c.08.43.62.55,1.06.62,2.86.45,5.33,2.26,8.15,2.91a23.19,23.19,0,0,1,4,.89,6.5,6.5,0,0,0,2.5.92c1.19,0,2.1-1,2.84-1.95a2.11,2.11,0,0,0,.47-.82,1.44,1.44,0,0,0-.08-.71,3.25,3.25,0,0,0-2.18-1.88,14.65,14.65,0,0,0-3-.4,19.23,19.23,0,0,1-5.34-1.25c-1.36-.52-3.15-1.8-4.65-1.68C327.65,247.67,326.39,249.23,325.54,250.06Zm-10.29,12.25a1.26,1.26,0,0,0,.63.57,35.32,35.32,0,0,0,10.31,3.6c.95.17,2.09.24,2.71-.5a2.78,2.78,0,0,0,.51-1.34,2.39,2.39,0,0,0-.28-2,2.85,2.85,0,0,0-2-.57,16.47,16.47,0,0,1-7.3-2.52c-1-.66-3.18-2.79-3.83-.42-.19.7.08,1.23-.28,1.92C315.48,261.43,315.07,261.79,315.25,262.31Zm-13.51-6.68a.34.34,0,0,0-.13.16c-.07.19.16.34.34.42a51.43,51.43,0,0,0,6.55,2.41,5,5,0,0,0,2.55.18,2,2,0,0,0,1.57-1.82c0-1-1-1.67-1.89-2.11a17.28,17.28,0,0,0-4.68-1.84C304.39,252.8,302.87,254.66,301.74,255.63Zm-4.68,2.16a1.21,1.21,0,0,0-.6.94c0,.43.46.71.85.88,1.65.73,3.58.88,5,2,.77.61,1.33,1.47,2.11,2.07a2.23,2.23,0,0,0,2.73.22,2.07,2.07,0,0,0,.59-1.39,4.35,4.35,0,0,0-1.58-3.47,9.2,9.2,0,0,0-3.49-1.79,10,10,0,0,0-2.93-.68A5.4,5.4,0,0,0,297.06,257.79Zm11.79,7.15a1.76,1.76,0,0,0-.67,1.24c0,.54.57.9,1,1.18l2.37,1.42c.49.29,1,.58,1.49.82a17.37,17.37,0,0,0,2,.74,3.36,3.36,0,0,0,2.2.19,2.23,2.23,0,0,0,1.06-2.79,5.14,5.14,0,0,0-2.15-2.42,14.12,14.12,0,0,0-4-2C310.82,263,309.74,264,308.85,264.94Zm-6.05,3.34a1.6,1.6,0,0,0-.48.7,1.5,1.5,0,0,0,.75,1.49c.49.33,1.08.52,1.54.9.93.75,1.21,2.08,2.08,2.91a2.74,2.74,0,0,0,4.48-2.87,5.67,5.67,0,0,0-1.16-1.76,13.47,13.47,0,0,0-1.93-1.92C306.23,266.35,304.39,266.7,302.8,268.28Zm-7.36,2.64c.41.4.92.67,1.31,1.08,1,1,1,2.79,2.18,3.65a2.81,2.81,0,0,0,2.15.45,2.15,2.15,0,0,0,1.76-1.2c.64-1.68-1.45-5.21-3.11-5.85C298.59,268.6,293.59,269.09,295.44,270.92Zm-6.34-1.76a1.45,1.45,0,0,0-1.16.54,1.32,1.32,0,0,0,.3,1.42c.93,1.18,2.49,1.85,3,3.25a10.68,10.68,0,0,0,.58,1.87,3.21,3.21,0,0,0,2.48,1.18,2.32,2.32,0,0,0,1.52-.19,1.62,1.62,0,0,0,.65-1.38,3.93,3.93,0,0,0-.39-1.53c-.61-1.48-1.49-3.5-2.83-4.48C292.25,269.09,290.28,269.06,289.1,269.16Zm-6.8,2.63a2,2,0,0,0-.32,1.55,2,2,0,0,0,1.17,1.08,9.5,9.5,0,0,1,1.49.66c.85.58,1.21,1.64,1.89,2.41a1.8,1.8,0,0,0,.56.47,1.66,1.66,0,0,0,2-.52,2.55,2.55,0,0,0,.41-2.1,6,6,0,0,0-.91-2c-.69-1.1-1.7-2.91-2.91-3.51S282.9,270.77,282.3,271.79Z" transform="translate(-121.84 -56)"/><path class="cls-6" d="M304.22,223.47c-5.64,6.31-6.27,15.45-10.68,19.77s-9.78,5.61-12.15,5.1c-.9,0-1-.79,1-1.85s7.14-7.61,5.41-16.05c1.7.12,6.76,2,6.6-7,.15-1,6.34.5,7.17-.37s-.81-9-.48-9.85,6.69-1.71,10.53-4.41a41.24,41.24,0,0,0,6.29-5.3c.49-.49,1.22,3.13-.9,7.32-.16.52,3.43.35,17-2.59s32-8.73,41.56-13.71,10.37-5.8,11.18-6.37,1.47,0,.9,2.69-1.4,11.51-13.64,15.52-24,2.93-29.64,3S310.35,216.62,304.22,223.47ZM278,239.6c3.24-6.82,2.45-8.31,3.11-13.61s3.63-4.32,7.21-5.05c-1.48-5.49,2.12-6.72,3-8.89a11.27,11.27,0,0,1,0-3.67s-.08-.79-.43-1-2.36,0-3.85-.35-2.27-2.54-3.93-2.54c-8.4,1.4-12.95,4.9-13.73,6.62s-.7,3-1.31,4.88-2.89.57-3,1.8a10.62,10.62,0,0,1-2.53,5.73c-1.66,1.7-2.36,2.3-2.36,2.3a3,3,0,0,0,0,2.28c.52,1.14,3.06,6.21,4.28,9.55s6.38,10.48,7.17,11.63C271.63,249.23,274.78,246.42,278,239.6Zm-5.75-24.15c-.79-1.23,4.18-6.28,7.5-6.63s6,1.27,6.62,3c0,.81-1.4.42-2,.34C280.6,212.11,274.78,214.22,272.26,215.45ZM250.6,298.57c-1.31.22-.88,4.27-.86,5.32a8.92,8.92,0,0,0,.27,2.24c.83,2.87,4.13,4.76,7,4.54a4.38,4.38,0,0,0,1.43-.33,3,3,0,0,0,1.79-3.09,5,5,0,0,0-1-2l-1-1.35c-.34-.49-.92-1-1.44-.75a1.25,1.25,0,0,0-.47.65l-.62,1.45c-.21.51-.5,1.08-1,1.21-.76.18-1.37-.63-1.65-1.36a9.13,9.13,0,0,1-.64-3.1,12.17,12.17,0,0,0-.09-1.71C252.21,299.5,251.57,298.41,250.6,298.57Zm12.42-5a4.15,4.15,0,0,0,2.63-1.67c.33-.46.63-1,1.18-1.12a1.2,1.2,0,0,1,1.07.52,5,5,0,0,1,.54,1.12c1,2.41,3.21,4.15,4.42,6.48,0,0-1.57.1-1.77.06-.5-.09-.93-.24-1.45-.29a18,18,0,0,1-4.28-.93c-1.3-.45-3.51-1.17-4.31-2.38S262.23,293.7,263,293.56Zm-50.29.6-1.24,2c-1.26,2-2.67,4-2.44,6.5a1.39,1.39,0,0,0,.18.63,1.24,1.24,0,0,0,.62.4,3,3,0,0,0,2.78-.8,9.24,9.24,0,0,0,1.71-2.47c3.17-6,6.36-12.08,11.3-16.67a9.43,9.43,0,0,0,1.56-1.66,2.67,2.67,0,0,0,.46-2.16c-.56-2-2.08-.85-3,0a54.17,54.17,0,0,0-9.26,10.37C214.45,291.52,213.58,292.83,212.73,294.16Zm115.54-76.1c-.12,2.86-.16,5.91-3.92,5.57-1.3-.11-2.59-.33-3.89-.38s-3.44.48-4.6,0l5.18,2.07c.6.24,1.28.58,1.38,1.22a1.28,1.28,0,0,1-.8,1.25,3.73,3.73,0,0,1-1.56.23,23,23,0,0,1-5-.13,11,11,0,0,0-4.43-.12c-.54.09-2,.47-1.47,1.25.3.47,2.48.24,3,.3a36,36,0,0,1,4.84.7,3.88,3.88,0,0,1,1.05.38c1.17.71,2.28,2.41.79,3.41a4.16,4.16,0,0,1-2,.55,29.65,29.65,0,0,1-5.73,0c0,1,1.4,1.2,2.39,1.32a6.41,6.41,0,0,1,3.3,1.4c.46.38.9,1,.64,1.53a1.49,1.49,0,0,1-1.17.63A18.74,18.74,0,0,1,306.24,238a.8.8,0,0,0-.65-.08c-.5.24,0,1,.46,1.25,1.33.72,2.78,1.17,4.13,1.86a6.51,6.51,0,0,1,3.22,3.05c-1.08,1.33-3.07,1.47-4.76,1.15s-3.34-1-5.05-.89c.17,1.71,3,2,3.33,3.7.24,1.14-.94,2.18-2.1,2.26a6.2,6.2,0,0,1-3.26-1.07,6.17,6.17,0,0,0-3.26-1.09,5.62,5.62,0,0,0,1.07,2.94c.49.94.77,2.21,0,3-.94,1-2.52.26-3.64-.47l-4.19-2.73c.28,1.28,1.44,2.12,2.42,3s1.89,2.16,1.46,3.39l-3.95-1.54a61.87,61.87,0,0,1,8.33,8.41,1.4,1.4,0,0,1,.43,1,.94.94,0,0,1-1,.7,2.78,2.78,0,0,1-1.22-.47,60.12,60.12,0,0,1-9.73-7.22,3,3,0,0,0-1.41-.87c-.56-.1-1.23.27-1.23.83s.9,1.12,1.22,1.66c.47.77.36,1.2,1.22,1.81,1.42,1,3.15,1.45,4.47,2.61.16.58-.59,1-1.19,1a6.69,6.69,0,0,0-1.76-.26c-1,.16-1.45,1.32-2.22,2a2.62,2.62,0,0,1-3.07.19,5.2,5.2,0,0,1-1.71-3.18L281,257.68c-1,3.14.08,6.51.3,9.8.54,8.39-4.65,14.89-11.39,19.18a97.2,97.2,0,0,1-14.4,7.55c-1.89.8-3.55,2-5.47,2.69-.53-.79.13-1.86.57-2.53,1.42-2.16,3-4.23,4.53-6.33a4.12,4.12,0,0,0,.89-1.83,1.45,1.45,0,0,0-2.17-1.46,7.6,7.6,0,0,0-2.18,1.86,17.92,17.92,0,0,0-2.85,4.1,38.58,38.58,0,0,1-3.15,5.34c-.89,1.13-1.24,2.83-3,2.47a4.49,4.49,0,0,1-1.35-.58l-1.65-.94a4,4,0,0,0-3.11-.75c.6,2.31.26,4.67.06,7-2.07-.71-1.88-3.9-3.56-5.31a.81.81,0,0,0-.75-.24c-.31.1-.42.47-.49.78a21.86,21.86,0,0,1-3.36,7.34,3.34,3.34,0,0,1-1.43,1.31,2.23,2.23,0,0,1-2.34-.68,3.78,3.78,0,0,1-.86-2.39c-.11-2.87,1.83-5.36,3-8,1-2.41,1.76-5.46,4.25-6.27a8.31,8.31,0,0,0,.41,3.09q3.34-4.42,6.71-8.84a37.82,37.82,0,0,1-5.62,2.43l-.45-3.55a40.76,40.76,0,0,0-8.62,13.54c-.88,2.17-1.35,4.64-2.44,6.71-.62,1.18-3.23,4-4,1.54a9.65,9.65,0,0,1-.65-4.87,8.93,8.93,0,0,1,.95-2.31,57.12,57.12,0,0,1,4.58-7.22c.83-1.12,1.71-2.21,2.61-3.27s1.38-2,2.19-3a68,68,0,0,1,5.12-5.49q1.37-1.29,2.79-2.52a15.91,15.91,0,0,1,2.8-2.27c-3.77,1.9-8.14,3.84-12,2.24,0-3,3.1-5.22,6.08-5.83s6.11-.21,9.07-.89c2.68-.61,6.71-2.92,5.45-6.22a12.21,12.21,0,0,1-6.05,3.08,2.06,2.06,0,0,1-1.28-.08c-.82-.44-.7-1.67-.24-2.47,1.75-3,6.07-3.31,9.12-4.2a5.55,5.55,0,0,0,2.06-1l.09-.09.21-.22v0a1.74,1.74,0,0,0,.26-.53c0-.43-.69-.64-1.1-1.52-.6-1.3-1.7.2-2.75,1.49s-3.66,1.06-4.46.21a2.22,2.22,0,0,1,.25-3.41,12,12,0,0,0,3.21-2.6c.25-.55-.85-1.6-2.31.5s-5.66,3.86-7,1.58,1.36-4.43,3-5.12,2.3-.31,2.8-1.22-1-1.25-1.6-1.25-.95.5-1.92,1.2-3.64,3-6.14,3.28-3.91-1-4.07-1.72a2.9,2.9,0,0,1,1.41-2.76c1.15-.7,4.91-.75,6.81-1.4s1.76-1.6,1.76-2.3-.6-.9-2.21-.3-3.6,2.05-6.11,2.75-5.25-.1-5.35-1.4A3.12,3.12,0,0,1,227,240c2.29-.55,6.37-.9,7.42-1.95s0-1.75-.7-1.9-2.1,1.4-6.31,2.25-8.31.4-8.36-.83.52-3.55,3.88-3.75,7.58-.93,9-3a1.34,1.34,0,0,0-.85-2.1c-.54.05-2.66,2.32-6,3.55s-10.07,1.45-9.76-.93,3.77-1.87,7-2.07,8-3.33,8.41-4.11-.05-1.18-.7-.93-4.2,1.66-7.11,2.46-8,1.85-9.16,1.68-3.37-.71-3.32-2.26a2.76,2.76,0,0,1,2.69-2.66c1.52-.22,7.08-.51,11.47-1s6.47-1,6.49-1.82-1.58-.78-3.52-.64-15.81,1.44-17.91.36a2.64,2.64,0,0,1-.56-4.36c1.08-.85,2.23-1.1,6.54-1s6.47-.14,6.4-1.79-.82-.86-5.43-1.27a42.83,42.83,0,0,0-6.85.57c-1.29.45-1.72,3.17-6.78,3.17s-9.26-2.46-16.9-2.46-6.21.26-10.22,3.88a7.12,7.12,0,0,1-6.21.2c-2.59-1.23-6.54-5.18-18.38-7.12s-10.8.71-14.88-1.75-4.08-5,.91-6.08,17.53,3.24,26.39,6.41,12.62,2.78,14.69,2.78c.82-.15,1.3-2.2-.9-2.2-3.24,0-10.68-1.68-20.77-5.44s-8.8-4.53-15.27-4.59-9.45.19-12.3-2.33-1.23-8.73-.51-10.42c15.07,4.4,26.72,10.55,40.43,15.53s22.5,9.5,41.18,7c-1.84-1.68-7.15-10.89-7.26-13.77,1.5,0,16.9,9.18,33.8,11.53,5.69.85,10.92-.11,13.91,2.66s1.07,4.59-.75,10.46-2.56,16.44,4.38,24.55c-9.39-3.09-13.13-8.22-13.13-16.33s1.6-8.43-.11-11.42c-.39-.95-2.91-3.15-5.18-4.25s-1.72-1.13-4.49-.89a8,8,0,0,1,.12,1,27.28,27.28,0,0,0,6.51,8.63,2.62,2.62,0,0,1,.86,1.07,2.67,2.67,0,0,1,0,1.16,40.3,40.3,0,0,0,0,12.11c.28,1.76.67,4,1.89,5.34a14.12,14.12,0,0,0,4.49,2.89,30,30,0,0,0,5,2c2.77.74,5.76.7,8.36,1.91,2.42,1.12,4.29,3.25,6.78,4.22a11.29,11.29,0,0,0,5.42.48L265,259.63l-10-3.32,5.87,8.47L255,272.59l10.33-2.37,5.57,7.82v-9.73l10.24-2.89-8.26-3.12-.52-10.16c.93-.17,1.86-.39,2.77-.61L289,248.19c1.05-.25,1.75.23,2.81-.15a11.24,11.24,0,0,0,2.81-1.52,12,12,0,0,0,4-5.11c.64-1.59.94-3.3,1.44-4.94a40.66,40.66,0,0,1,2.27-5.51,30.87,30.87,0,0,1,2.3-4.28c3.43-5,9.47-7.48,15.29-9.21a34.61,34.61,0,0,1,6.5-1.35,1.83,1.83,0,0,1,1.44.3A2.06,2.06,0,0,1,328.27,218.06Z" transform="translate(-121.84 -56)"/><path class="cls-1" d="M380.39,343.65H349.85c-6.45,36.59-31.51,52-63.82,65.4,0,0,6.4,9.6,6.71,10.37,0,0-13.11,9.45-38.17,9.45h-.9c-25.06,0-38.17-9.45-38.17-9.45.31-.77,6.71-10.37,6.71-10.37-32.32-13.42-57.37-28.81-63.82-65.4H127.85c5.79,38,23.76,65.7,63.44,84.76l-4.6,7c22.4,12.58,48.66,20.58,67,20.58h.9c18.32,0,44.58-8,67-20.58l-4.6-7C356.63,409.35,374.59,381.61,380.39,343.65Z" transform="translate(-121.84 -56)"/><path class="cls-6" d="M132.91,347.7h22.21c4.39,16.56,12,42.71,60.09,62.49l-13.66,2.13-8.28,12.8A96.9,96.9,0,0,1,132.91,347.7Zm80.3,70.14,2-3.78-6.44.75A18.2,18.2,0,0,0,213.21,417.84Z" transform="translate(-121.84 -56)"/><path class="cls-6" d="M315,425.12l-8.28-12.8L293,410.19c48-19.78,55.69-45.93,60.08-62.49h22.21C370.81,382,348.47,411.57,315,425.12Zm-15.5-10.31-6.44-.75,2,3.78A18.2,18.2,0,0,0,299.47,414.81Z" transform="translate(-121.84 -56)"/><path class="cls-6" d="M304.19,417.84c-23.17,13.14-35.61,14.44-49.62,15h-.9c-14-.6-26.45-1.9-49.62-15l-11.72,16.72C216.54,447.85,238.94,452,253.67,452h.9c14.73,0,37.13-4.16,61.33-17.45Z" transform="translate(-121.84 -56)"/><polygon points="28.93 303.98 23.43 306.06 27.05 299.02 26.48 297.54 15.87 301.56 16.87 304.21 22.52 302.07 18.68 309.36 19.18 310.7 29.93 306.62 28.93 303.98"/><polygon points="45.26 326.84 40.72 330.57 41.89 322.74 40.88 321.52 32.12 328.73 33.91 330.91 38.57 327.08 37.27 335.22 38.18 336.32 47.05 329.02 45.26 326.84"/><polygon points="32.33 313.57 28.4 313.37 30.86 310.18 29.76 307.65 24.98 313.51 20.74 315.35 21.65 317.44 25.89 315.6 33.43 316.1 32.33 313.57"/><path d="M169.85,390.41a2.18,2.18,0,0,1,.39,1.67v0s2.43-1.28,2.43-1.28a5.34,5.34,0,0,0-.9-2.12,3.53,3.53,0,0,0-2.22-1.58,3.32,3.32,0,0,0-2.63.53,4,4,0,0,0-1.06,1,3.35,3.35,0,0,0-.55,1.24,7.83,7.83,0,0,0,0,2.09c.1,1.09-.07,1-.16,1.28a1.55,1.55,0,0,1-.59.79c-.23.15-.77.51-1.53-.62a1.84,1.84,0,0,1-.39-1.54l-2.42,1.79a4.93,4.93,0,0,0,.69,1.56,4.33,4.33,0,0,0,2.46,1.91,3.3,3.3,0,0,0,2.78-.48,4.25,4.25,0,0,0,1.14-1.09,3.55,3.55,0,0,0,.58-1.34,6.94,6.94,0,0,0,0-2c-.14-1.35.11-1.92.53-2.2a1,1,0,0,1,.76-.18A1,1,0,0,1,169.85,390.41Z" transform="translate(-121.84 -56)"/><path d="M177,396.38l-2.26-2.14-10.91,6.46,2.19,1.93,2.09-1.18,2.53,2.24-.89,2.24,2.17,1.93Zm-5.52,5.15-1.34-1.19,2.5-1.47Z" transform="translate(-121.84 -56)"/><path d="M160.77,376.32l-1.41-2.78L146.92,376l1.41,2.57,2.36-.42,1.63,3-1.59,1.82,1.4,2.54Zm-6.93,3-.86-1.57,2.85-.54Z" transform="translate(-121.84 -56)"/><path d="M185.34,402.63a7.13,7.13,0,0,0-2.64-3.07c-.17-.14-.79-.58-1.87-1.33l-.25-.17-7.14,9.05,2.05,1.57,2.47-3.13a5.07,5.07,0,0,0,.44.36c3.13,2.39,5.16,1.15,6.31-.31A3,3,0,0,0,185.34,402.63Zm-2.81,1.49a1.37,1.37,0,0,1-1.12.64,3.12,3.12,0,0,1-1.64-.76l-.35-.3,1.81-2.29.22.16C183.38,403,182.74,403.86,182.53,404.12Z" transform="translate(-121.84 -56)"/><path d="M191.27,407.29a6.38,6.38,0,0,0-1.71-1l-2,2.18s2.79.75,2.69,2.48a4.7,4.7,0,0,1-1.15,2.69,4.51,4.51,0,0,1-2.25,1.64c-1.37.43-2.86-1.46-2.85-2.29L182,415a5.36,5.36,0,0,0,1.64,2.06,4.52,4.52,0,0,0,4,1,7.1,7.1,0,0,0,3.85-2.67,6.87,6.87,0,0,0,1.65-4.36A4.71,4.71,0,0,0,191.27,407.29Z" transform="translate(-121.84 -56)"/><polygon points="161.94 375.91 163.35 381.62 156.8 377.18 155.26 377.56 157.98 388.58 160.72 387.9 159.28 382.05 166.06 386.73 167.45 386.39 164.69 375.23 161.94 375.91"/><polygon points="136.45 380.4 136.53 386.43 131.15 380.47 129.56 380.49 129.73 392.16 132.55 392.12 132.47 385.92 138.01 392.19 139.44 392.16 139.28 380.36 136.45 380.4"/><path d="M237.85,437.19a2.19,2.19,0,0,1,1.37,1v0s1-2.55,1-2.55a5.29,5.29,0,0,0-2.06-1,3.53,3.53,0,0,0-2.72.24,3.32,3.32,0,0,0-1.65,2.1,4,4,0,0,0-.16,1.46,3.52,3.52,0,0,0,.39,1.3,8.23,8.23,0,0,0,1.35,1.59c.79.77.62.83.71,1.08a1.52,1.52,0,0,1,.06,1c-.07.27-.25.89-1.56.52a1.79,1.79,0,0,1-1.29-.92l-.69,2.94a5.14,5.14,0,0,0,1.53.73,4.32,4.32,0,0,0,3.11-.13,3.32,3.32,0,0,0,1.81-2.17,4.31,4.31,0,0,0,.17-1.57,3.75,3.75,0,0,0-.43-1.4,7,7,0,0,0-1.26-1.51c-1-.94-1.16-1.54-1-2a1,1,0,0,1,.46-.63A1,1,0,0,1,237.85,437.19Z" transform="translate(-121.84 -56)"/><path d="M247.61,436l-3.1-.29-4.61,11.81,2.92.17.92-2.22,3.37.21.68,2.31,2.9.18Zm-1.17,7.46-1.79-.11,1.06-2.7Z" transform="translate(-121.84 -56)"/><path d="M228,432.65a6.59,6.59,0,0,0-1.72-1l-2,2.19s2.79.75,2.69,2.48A4.7,4.7,0,0,1,225.8,439a4.42,4.42,0,0,1-2.25,1.63c-1.37.43-2.86-1.46-2.85-2.29l-2,2a5.32,5.32,0,0,0,1.64,2.07,4.55,4.55,0,0,0,4,1,7.1,7.1,0,0,0,3.85-2.67,6.83,6.83,0,0,0,1.64-4.37A4.64,4.64,0,0,0,228,432.65Z" transform="translate(-121.84 -56)"/><polygon points="94.16 372.46 91 377.72 91.08 371.28 90.02 370.87 86.22 375.64 86.94 369.69 84.76 368.85 82.3 381.21 83.62 381.72 88.43 376.58 88.38 383.53 90.15 384.21 96.33 373.3 94.16 372.46"/><polygon points="147.2 382.55 146.66 380.13 140.36 380.23 140.49 392.09 147.27 391.99 147.8 389.08 143.41 389.14 143.38 386.93 146.24 386.88 146.21 384.54 143.35 384.59 143.33 382.62 147.2 382.55"/><path d="M294,428.26a6,6,0,1,0,6,6A6,6,0,0,0,294,428.26Zm0,9.35a3.35,3.35,0,1,1,3.35-3.35A3.35,3.35,0,0,1,294,437.61Z" transform="translate(-121.84 -56)"/><path d="M325.2,401.15l-2.7,1.56L325.6,415l2.48-1.55-.55-2.34,2.87-1.79,1.9,1.5,2.46-1.54Zm3.37,6.75-1.53,1-.7-2.81Z" transform="translate(-121.84 -56)"/><polygon points="220.01 330.66 223.12 335.62 217.5 333.01 216.64 333.81 219.01 339.16 214.13 336.15 212.35 337.81 222.04 344.93 223.11 343.92 220.89 337.51 226.98 340.29 228.42 338.94 221.78 329.01 220.01 330.66"/><path d="M321.58,411.25a2.4,2.4,0,0,0-.05-2.23,2.8,2.8,0,0,0-2.08-1.54,4.71,4.71,0,0,0-2.9.66c-.53.28-1.44.81-2.71,1.57l-.26.16L319.1,420l3.25-1.74a4.92,4.92,0,0,0,2.3-2.3,3.17,3.17,0,0,0-.15-2.9A3.12,3.12,0,0,0,321.58,411.25Zm-3.16.78-.56.28-1-1.77c.26-.15.5-.29.7-.39,1.1-.6,1.48-.23,1.69.16S319.65,411.36,318.42,412Zm.46,2.15.57-.33a2.8,2.8,0,0,1,1.69-.49,1.3,1.3,0,0,1,.9.77,1.37,1.37,0,0,1,.17,1.28,2.84,2.84,0,0,1-1.32,1.13,5.08,5.08,0,0,1-.57.28Z" transform="translate(-121.84 -56)"/><path d="M333.18,395.55a5.67,5.67,0,0,0-4.13,1.29c-.31.24-1.07.86-2.27,1.84l-.24.2,7.24,8.89L336,406.1c3.16-2.41,3.46-5.25.87-8.42A5.46,5.46,0,0,0,333.18,395.55Zm2.76,6.44a2.35,2.35,0,0,1-1,2l-.56.4L330,399.08c.17-.16.32-.28.43-.37,1.6-1.22,3-1,4.34.67A4.3,4.3,0,0,1,335.94,402Z" transform="translate(-121.84 -56)"/><path d="M369.38,362.12l.7-2.82-2-1.34.82-3.28,2.39-.2.72-2.84-12.65.83-.65,3Zm-5.67-7,2.89-.2-.44,1.74Z" transform="translate(-121.84 -56)"/><polygon points="243.81 315.76 238.65 312.45 245.08 312.72 245.52 311.67 240.85 307.74 246.79 308.63 247.69 306.48 235.4 303.66 234.85 304.96 239.86 309.92 232.91 309.68 232.18 311.42 242.91 317.91 243.81 315.76"/><polygon points="228.69 323.57 226.45 322.52 222.69 327.59 232.19 334.69 236.23 329.25 234.24 327.06 231.62 330.59 229.84 329.26 231.55 326.97 229.67 325.57 227.97 327.86 226.39 326.68 228.69 323.57"/><polygon points="230.49 315.58 235.53 318.6 227.94 319.83 227.17 321.11 236.91 326.94 238.27 324.67 233.09 321.57 241.01 320.36 241.7 319.21 231.84 313.31 230.49 315.58"/></svg>